# xmcd
#
# Track frame offsets: 
#        150
#        12775
#        25227
#        35925
#        47347
#        59162
#        69952
#        82542
#        94917
#        108530
#        122290
#        135230
#        148317
#        162420
#        174255
#        187472
#
# Disc length: 2647 seconds
#
# Revision: 2
# Processed by: cddbd v1.5.2PL0 Copyright (c) Steve Scherf et al.
# Submitted via: ExactAudioCopy v0.99pb4
#
DISCID=d70a5510
DTITLE=Sonny Boy Wliiamson - Clownin' With The World (w. Willie Love)
DYEAR=1900
DGENRE=Blues
TTITLE0=She's Crazy (SBW)
TTITLE1=309 (SBW)
TTITLE2=Sonny's Rhythm (SBW)
TTITLE3=City Of New Orleans (SBW)
TTITLE4=Keep It To Yourself (SBW)
TTITLE5=Shuckin' Mama (SBW)
TTITLE6=I'm Not Beggin' Nobody (SBW)
TTITLE7=Clownin' With The World (SBW)
TTITLE8=Take It Easy Baby (WL)
TTITLE9=Little Car Blues (WL)
TTITLE10=V-8 Ford (WL)
TTITLE11=Nelson Street Blues (WL)
TTITLE12=Falling Rain (WL)
TTITLE13=Feed My Body To The Fishes (WL)
TTITLE14=Worried Blues (WL)
TTITLE15=Lonesome World Blues (WL)
EXTD=
EXTT0=
EXTT1=
EXTT2=
EXTT3=
EXTT4=
EXTT5=
EXTT6=
EXTT7=
EXTT8=
EXTT9=
EXTT10=
EXTT11=
EXTT12=
EXTT13=
EXTT14=
EXTT15=
PLAYORDER=
